# xmcd
#
# Track frame offsets: 
#        182
#        13865
#        30927
#        47082
#        59252
#        71842
#        79587
#        96707
#        112917
#        126380
#
# Disc length: 1900 seconds
#
# Revision: 4
# Processed by: cddbd v1.5.2PL0 Copyright (c) Steve Scherf et al.
# Submitted via: ExactAudioCopy v1.3
#
DISCID=85076a0a
DTITLE=B. J. Thomas - I Believe
DYEAR=1997
DGENRE=Country
TTITLE0=Will The Circle Be Unbroken
TTITLE1=What A Friend We Have In Jesus
TTITLE2=Happy Man
TTITLE3=Rock Of Ages
TTITLE4=I Believe
TTITLE5=Just A Little Talk With Jesus
TTITLE6=It's No Secret (What God Can Do)
TTITLE7=Love Lifted Me
TTITLE8=Sweet Hour Of Prayer
TTITLE9=You Gave Me Love
EXTD=
EXTT0=
EXTT1=
EXTT2=
EXTT3=
EXTT4=
EXTT5=
EXTT6=
EXTT7=
EXTT8=
EXTT9=
PLAYORDER=
